<svg width="187" height="51" viewBox="0 0 187 51" fill="none" xmlns="http://www.w3.org/2000/svg">
<g filter="url(#filter0_d_203_36)">
<rect x="3" y="1" width="181" height="45" rx="8" fill="white"/>
</g>
<g filter="url(#filter1_i_203_36)">
<path d="M30.0726 32C29.7046 32 29.3846 31.864 29.1126 31.592C28.8406 31.32 28.7046 31 28.7046 30.632V15.848C28.7046 15.48 28.8406 15.16 29.1126 14.888C29.3846 14.616 29.7046 14.48 30.0726 14.48H30.6726C31.0886 14.48 31.4726 14.592 31.8246 14.816C32.1766 15.04 32.4326 15.336 32.5926 15.704L36.7926 24.776C36.7926 24.792 36.8006 24.8 36.8166 24.8C36.8326 24.8 36.8406 24.792 36.8406 24.776L41.0406 15.704C41.2006 15.336 41.4566 15.04 41.8086 14.816C42.1606 14.592 42.5446 14.48 42.9606 14.48H43.6566C44.0246 14.48 44.3446 14.616 44.6166 14.888C44.8886 15.16 45.0246 15.48 45.0246 15.848V30.632C45.0246 31 44.8886 31.32 44.6166 31.592C44.3446 31.864 44.0246 32 43.6566 32H43.1286C42.7606 32 42.4406 31.864 42.1686 31.592C41.8966 31.32 41.7606 31 41.7606 30.632V20.192C41.7606 20.176 41.7526 20.168 41.7366 20.168C41.7206 20.168 41.7126 20.176 41.7126 20.192L38.8326 26.36C38.6566 26.728 38.3846 27.032 38.0166 27.272C37.6646 27.496 37.2886 27.608 36.8886 27.608H36.7446C36.3446 27.608 35.9606 27.496 35.5926 27.272C35.2406 27.032 34.9766 26.728 34.8006 26.36L31.9206 20.192C31.9206 20.176 31.9126 20.168 31.8966 20.168C31.8806 20.168 31.8726 20.176 31.8726 20.192V30.632C31.8726 31 31.7366 31.32 31.4646 31.592C31.1926 31.864 30.8726 32 30.5046 32H30.0726ZM54.838 17.456L52.726 24.992C52.71 25.04 52.718 25.088 52.75 25.136C52.782 25.184 52.822 25.208 52.87 25.208H56.854C56.902 25.208 56.942 25.184 56.974 25.136C57.006 25.088 57.014 25.04 56.998 24.992L54.886 17.456C54.886 17.44 54.878 17.432 54.862 17.432C54.846 17.432 54.838 17.44 54.838 17.456ZM48.622 32C48.286 32 48.022 31.864 47.83 31.592C47.638 31.32 47.598 31.024 47.71 30.704L52.678 15.776C52.822 15.392 53.054 15.08 53.374 14.84C53.71 14.6 54.078 14.48 54.478 14.48H55.342C55.758 14.48 56.126 14.6 56.446 14.84C56.782 15.08 57.014 15.392 57.142 15.776L62.11 30.704C62.222 31.024 62.182 31.32 61.99 31.592C61.798 31.864 61.534 32 61.198 32H60.334C59.95 32 59.59 31.88 59.254 31.64C58.934 31.384 58.718 31.064 58.606 30.68L57.838 27.968C57.822 27.84 57.734 27.776 57.574 27.776H52.15C52.006 27.776 51.918 27.84 51.886 27.968L51.118 30.68C51.022 31.064 50.806 31.384 50.47 31.64C50.15 31.88 49.79 32 49.39 32H48.622ZM62.6132 17.264C62.2452 17.264 61.9252 17.136 61.6532 16.88C61.3812 16.608 61.2452 16.288 61.2452 15.92V15.848C61.2452 15.48 61.3812 15.16 61.6532 14.888C61.9252 14.616 62.2452 14.48 62.6132 14.48H72.8372C73.2052 14.48 73.5252 14.616 73.7972 14.888C74.0692 15.16 74.2052 15.48 74.2052 15.848V15.92C74.2052 16.288 74.0692 16.608 73.7972 16.88C73.5252 17.136 73.2052 17.264 72.8372 17.264H69.6212C69.4932 17.264 69.4292 17.336 69.4292 17.48V30.632C69.4292 31 69.2932 31.32 69.0212 31.592C68.7492 31.864 68.4292 32 68.0612 32H67.3892C67.0212 32 66.7012 31.864 66.4292 31.592C66.1572 31.32 66.0212 31 66.0212 30.632V17.48C66.0212 17.336 65.9572 17.264 65.8292 17.264H62.6132ZM80.7197 17.216V22.424C80.7197 22.552 80.7917 22.616 80.9357 22.616H82.1357C84.9837 22.616 86.4077 21.6 86.4077 19.568C86.4077 17.76 85.0877 16.856 82.4477 16.856C81.9677 16.856 81.4637 16.896 80.9357 16.976C80.7917 17.008 80.7197 17.088 80.7197 17.216ZM78.7757 32C78.4077 32 78.0877 31.864 77.8157 31.592C77.5437 31.32 77.4077 31 77.4077 30.632V15.968C77.4077 15.584 77.5357 15.24 77.7917 14.936C78.0477 14.632 78.3677 14.464 78.7517 14.432C80.1117 14.304 81.4237 14.24 82.6877 14.24C85.0397 14.24 86.7997 14.68 87.9677 15.56C89.1357 16.424 89.7197 17.648 89.7197 19.232C89.7197 20.368 89.4077 21.368 88.7837 22.232C88.1757 23.096 87.3517 23.704 86.3117 24.056C86.2957 24.056 86.2877 24.064 86.2877 24.08C86.2877 24.112 86.2957 24.128 86.3117 24.128C87.0797 24.608 87.7357 25.552 88.2797 26.96L89.7197 30.728C89.8317 31.032 89.7917 31.32 89.5997 31.592C89.4237 31.864 89.1757 32 88.8557 32H88.1117C87.6957 32 87.3197 31.888 86.9837 31.664C86.6477 31.424 86.4077 31.112 86.2637 30.728L84.9197 27.032C84.6317 26.264 84.3037 25.76 83.9357 25.52C83.5677 25.28 82.9357 25.16 82.0397 25.16H80.9357C80.7917 25.16 80.7197 25.232 80.7197 25.376V30.632C80.7197 31 80.5837 31.32 80.3117 31.592C80.0557 31.864 79.7437 32 79.3757 32H78.7757ZM98.3067 8.888C98.5787 8.888 98.7627 9.008 98.8587 9.248C98.9707 9.488 98.9387 9.704 98.7627 9.896L96.8907 12.032C96.2987 12.704 95.5467 13.04 94.6347 13.04H94.4667C94.1627 13.04 93.9387 12.912 93.7947 12.656C93.6507 12.4 93.6587 12.144 93.8187 11.888L94.9467 10.04C95.4107 9.272 96.1067 8.888 97.0347 8.888H98.3067ZM94.4667 32C94.0987 32 93.7787 31.864 93.5067 31.592C93.2347 31.32 93.0987 31 93.0987 30.632V15.848C93.0987 15.48 93.2347 15.16 93.5067 14.888C93.7787 14.616 94.0987 14.48 94.4667 14.48H95.4267C95.7947 14.48 96.1147 14.616 96.3867 14.888C96.6587 15.16 96.7947 15.48 96.7947 15.848V30.632C96.7947 31 96.6587 31.32 96.3867 31.592C96.1147 31.864 95.7947 32 95.4267 32H94.4667ZM107.482 32.24C104.954 32.24 102.946 31.464 101.458 29.912C99.9856 28.344 99.2496 26.12 99.2496 23.24C99.2496 20.392 99.9616 18.184 101.386 16.616C102.826 15.032 104.834 14.24 107.41 14.24C108.594 14.24 109.586 14.312 110.386 14.456C110.77 14.52 111.09 14.712 111.346 15.032C111.602 15.352 111.73 15.712 111.73 16.112V16.304C111.73 16.64 111.586 16.904 111.298 17.096C111.026 17.288 110.73 17.344 110.41 17.264C109.626 17.056 108.746 16.952 107.77 16.952C106.186 16.952 104.938 17.496 104.026 18.584C103.13 19.672 102.682 21.224 102.682 23.24C102.682 25.24 103.146 26.792 104.074 27.896C105.018 28.984 106.274 29.528 107.842 29.528C108.898 29.528 109.802 29.432 110.554 29.24C110.874 29.16 111.17 29.216 111.442 29.408C111.73 29.6 111.874 29.864 111.874 30.2V30.368C111.874 30.768 111.746 31.128 111.49 31.448C111.25 31.752 110.93 31.936 110.53 32C109.618 32.16 108.602 32.24 107.482 32.24ZM128.261 25.76C128.261 30.08 126.101 32.24 121.781 32.24C117.461 32.24 115.301 30.08 115.301 25.76V15.848C115.301 15.48 115.437 15.16 115.709 14.888C115.981 14.616 116.301 14.48 116.669 14.48H117.341C117.709 14.48 118.029 14.616 118.301 14.888C118.573 15.16 118.709 15.48 118.709 15.848V25.952C118.709 27.2 118.957 28.104 119.453 28.664C119.965 29.208 120.757 29.48 121.829 29.48C122.901 29.48 123.685 29.208 124.181 28.664C124.693 28.104 124.949 27.2 124.949 25.952V15.848C124.949 15.48 125.085 15.16 125.357 14.888C125.629 14.616 125.949 14.48 126.317 14.48H126.893C127.261 14.48 127.581 14.616 127.853 14.888C128.125 15.16 128.261 15.48 128.261 15.848V25.76ZM133.15 32C132.782 32 132.462 31.864 132.19 31.592C131.934 31.32 131.806 31 131.806 30.632V15.848C131.806 15.48 131.934 15.16 132.19 14.888C132.462 14.616 132.782 14.48 133.15 14.48H133.918C134.286 14.48 134.606 14.616 134.878 14.888C135.15 15.16 135.286 15.48 135.286 15.848V29C135.286 29.144 135.35 29.216 135.478 29.216H141.646C142.014 29.216 142.326 29.352 142.582 29.624C142.854 29.88 142.99 30.192 142.99 30.56V30.632C142.99 31 142.854 31.32 142.582 31.592C142.326 31.864 142.014 32 141.646 32H133.15ZM152.432 17.456L150.32 24.992C150.304 25.04 150.312 25.088 150.344 25.136C150.376 25.184 150.416 25.208 150.464 25.208H154.448C154.496 25.208 154.536 25.184 154.568 25.136C154.6 25.088 154.608 25.04 154.592 24.992L152.48 17.456C152.48 17.44 152.472 17.432 152.456 17.432C152.44 17.432 152.432 17.44 152.432 17.456ZM146.216 32C145.88 32 145.616 31.864 145.424 31.592C145.232 31.32 145.192 31.024 145.304 30.704L150.272 15.776C150.416 15.392 150.648 15.08 150.968 14.84C151.304 14.6 151.672 14.48 152.072 14.48H152.936C153.352 14.48 153.72 14.6 154.04 14.84C154.376 15.08 154.608 15.392 154.736 15.776L159.704 30.704C159.816 31.024 159.776 31.32 159.584 31.592C159.392 31.864 159.128 32 158.792 32H157.928C157.544 32 157.184 31.88 156.848 31.64C156.528 31.384 156.312 31.064 156.2 30.68L155.432 27.968C155.416 27.84 155.328 27.776 155.168 27.776H149.744C149.6 27.776 149.512 27.84 149.48 27.968L148.712 30.68C148.616 31.064 148.4 31.384 148.064 31.64C147.744 31.88 147.384 32 146.984 32H146.216Z" fill="#1460D0"/>
</g>
<defs>
<filter id="filter0_d_203_36" x="0.9" y="0.9" width="185.2" height="49.2" filterUnits="userSpaceOnUse" color-interpolation-filters="sRGB">
<feFlood flood-opacity="0" result="BackgroundImageFix"/>
<feColorMatrix in="SourceAlpha" type="matrix" values="0 0 0 0 0 0 0 0 0 0 0 0 0 0 0 0 0 0 127 0" result="hardAlpha"/>
<feOffset dy="2"/>
<feGaussianBlur stdDeviation="1.05"/>
<feComposite in2="hardAlpha" operator="out"/>
<feColorMatrix type="matrix" values="0 0 0 0 0.0745098 0 0 0 0 0.352941 0 0 0 0 0.768627 0 0 0 1 0"/>
<feBlend mode="normal" in2="BackgroundImageFix" result="effect1_dropShadow_203_36"/>
<feBlend mode="normal" in="SourceGraphic" in2="effect1_dropShadow_203_36" result="shape"/>
</filter>
<filter id="filter1_i_203_36" x="28.7046" y="8.888" width="131.167" height="23.652" filterUnits="userSpaceOnUse" color-interpolation-filters="sRGB">
<feFlood flood-opacity="0" result="BackgroundImageFix"/>
<feBlend mode="normal" in="SourceGraphic" in2="BackgroundImageFix" result="shape"/>
<feColorMatrix in="SourceAlpha" type="matrix" values="0 0 0 0 0 0 0 0 0 0 0 0 0 0 0 0 0 0 127 0" result="hardAlpha"/>
<feOffset dy="2"/>
<feGaussianBlur stdDeviation="0.15"/>
<feComposite in2="hardAlpha" operator="arithmetic" k2="-1" k3="1"/>
<feColorMatrix type="matrix" values="0 0 0 0 0 0 0 0 0 0 0 0 0 0 0 0 0 0 0.25 0"/>
<feBlend mode="normal" in2="shape" result="effect1_innerShadow_203_36"/>
</filter>
</defs>
</svg>
