<svg width="212" height="168" viewBox="0 0 212 168" fill="none" xmlns="http://www.w3.org/2000/svg">
<rect width="212" height="168" rx="40" fill="#FC9A0A"/>
<path d="M57.7526 116.176C57.5072 116.176 57.2939 116.091 57.1126 115.92C56.9312 115.739 56.8406 115.525 56.8406 115.28V115.232C56.8406 114.987 56.9312 114.773 57.1126 114.592C57.2939 114.411 57.5072 114.32 57.7526 114.32H64.5686C64.8139 114.32 65.0272 114.411 65.2086 114.592C65.3899 114.773 65.4806 114.987 65.4806 115.232V115.28C65.4806 115.525 65.3899 115.739 65.2086 115.92C65.0272 116.091 64.8139 116.176 64.5686 116.176H62.4246C62.3392 116.176 62.2966 116.224 62.2966 116.32V125.088C62.2966 125.333 62.2059 125.547 62.0246 125.728C61.8432 125.909 61.6299 126 61.3846 126H60.9366C60.6912 126 60.4779 125.909 60.2966 125.728C60.1152 125.547 60.0246 125.333 60.0246 125.088V116.32C60.0246 116.224 59.9819 116.176 59.8966 116.176H57.7526ZM68.5276 126C68.2822 126 68.0689 125.909 67.8876 125.728C67.7062 125.547 67.6156 125.333 67.6156 125.088V115.232C67.6156 114.987 67.7062 114.773 67.8876 114.592C68.0689 114.411 68.2822 114.32 68.5276 114.32H73.9676C74.2129 114.32 74.4262 114.411 74.6076 114.592C74.7889 114.773 74.8796 114.987 74.8796 115.232C74.8796 115.477 74.7889 115.691 74.6076 115.872C74.4262 116.043 74.2129 116.128 73.9676 116.128H69.9996C69.9036 116.128 69.8556 116.176 69.8556 116.272V118.848C69.8556 118.944 69.9036 118.992 69.9996 118.992H73.6956C73.9409 118.992 74.1436 119.077 74.3036 119.248C74.4742 119.419 74.5596 119.621 74.5596 119.856C74.5596 120.091 74.4742 120.293 74.3036 120.464C74.1436 120.624 73.9409 120.704 73.6956 120.704H69.9996C69.9036 120.704 69.8556 120.752 69.8556 120.848V124.048C69.8556 124.144 69.9036 124.192 69.9996 124.192H73.9676C74.2129 124.192 74.4262 124.283 74.6076 124.464C74.7889 124.635 74.8796 124.843 74.8796 125.088C74.8796 125.333 74.7889 125.547 74.6076 125.728C74.4262 125.909 74.2129 126 73.9676 126H68.5276ZM81.8523 126.16C80.167 126.16 78.8283 125.643 77.8363 124.608C76.855 123.563 76.3643 122.08 76.3643 120.16C76.3643 118.261 76.839 116.789 77.7883 115.744C78.7483 114.688 80.087 114.16 81.8043 114.16C82.5936 114.16 83.255 114.208 83.7883 114.304C84.0443 114.347 84.2576 114.475 84.4283 114.688C84.599 114.901 84.6843 115.141 84.6843 115.408V115.536C84.6843 115.76 84.5883 115.936 84.3963 116.064C84.215 116.192 84.0176 116.229 83.8043 116.176C83.2816 116.037 82.695 115.968 82.0443 115.968C80.9883 115.968 80.1563 116.331 79.5483 117.056C78.951 117.781 78.6523 118.816 78.6523 120.16C78.6523 121.493 78.9616 122.528 79.5803 123.264C80.2096 123.989 81.047 124.352 82.0923 124.352C82.7963 124.352 83.399 124.288 83.9003 124.16C84.1136 124.107 84.311 124.144 84.4923 124.272C84.6843 124.4 84.7803 124.576 84.7803 124.8V124.912C84.7803 125.179 84.695 125.419 84.5243 125.632C84.3643 125.835 84.151 125.957 83.8843 126C83.2763 126.107 82.599 126.16 81.8523 126.16ZM88.1209 126C87.8756 126 87.6623 125.909 87.4809 125.728C87.3103 125.547 87.2249 125.333 87.2249 125.088V115.232C87.2249 114.987 87.3103 114.773 87.4809 114.592C87.6623 114.411 87.8756 114.32 88.1209 114.32H88.4729C89.0809 114.32 89.5289 114.587 89.8169 115.12L93.7689 122.256C93.7689 122.267 93.7743 122.272 93.7849 122.272C93.7956 122.272 93.8009 122.267 93.8009 122.256V115.232C93.8009 114.987 93.8916 114.773 94.0729 114.592C94.2543 114.411 94.4676 114.32 94.7129 114.32H95.0649C95.3103 114.32 95.5183 114.411 95.6889 114.592C95.8703 114.773 95.9609 114.987 95.9609 115.232V125.088C95.9609 125.333 95.8703 125.547 95.6889 125.728C95.5183 125.909 95.3103 126 95.0649 126H94.7129C94.1049 126 93.6569 125.733 93.3689 125.2L89.4169 118.064C89.4169 118.053 89.4116 118.048 89.4009 118.048C89.3903 118.048 89.3849 118.053 89.3849 118.064V125.088C89.3849 125.333 89.2943 125.547 89.1129 125.728C88.9316 125.909 88.7183 126 88.4729 126H88.1209ZM106.139 120.16C106.139 117.387 105.125 116 103.099 116C101.072 116 100.059 117.387 100.059 120.16C100.059 122.933 101.072 124.32 103.099 124.32C105.125 124.32 106.139 122.933 106.139 120.16ZM106.987 124.576C106.037 125.632 104.741 126.16 103.099 126.16C101.456 126.16 100.155 125.632 99.1946 124.576C98.2452 123.52 97.7706 122.048 97.7706 120.16C97.7706 118.272 98.2452 116.8 99.1946 115.744C100.155 114.688 101.456 114.16 103.099 114.16C104.741 114.16 106.037 114.688 106.987 115.744C107.947 116.8 108.427 118.272 108.427 120.16C108.427 122.048 107.947 123.52 106.987 124.576ZM111.137 126C110.891 126 110.678 125.909 110.497 125.728C110.326 125.547 110.241 125.333 110.241 125.088V115.232C110.241 114.987 110.326 114.773 110.497 114.592C110.678 114.411 110.891 114.32 111.137 114.32H111.649C111.894 114.32 112.107 114.411 112.289 114.592C112.47 114.773 112.561 114.987 112.561 115.232V124C112.561 124.096 112.603 124.144 112.689 124.144H116.801C117.046 124.144 117.254 124.235 117.425 124.416C117.606 124.587 117.697 124.795 117.697 125.04V125.088C117.697 125.333 117.606 125.547 117.425 125.728C117.254 125.909 117.046 126 116.801 126H111.137ZM126.67 120.16C126.67 117.387 125.656 116 123.63 116C121.603 116 120.59 117.387 120.59 120.16C120.59 122.933 121.603 124.32 123.63 124.32C125.656 124.32 126.67 122.933 126.67 120.16ZM127.518 124.576C126.568 125.632 125.272 126.16 123.63 126.16C121.987 126.16 120.686 125.632 119.726 124.576C118.776 123.52 118.302 122.048 118.302 120.16C118.302 118.272 118.776 116.8 119.726 115.744C120.686 114.688 121.987 114.16 123.63 114.16C125.272 114.16 126.568 114.688 127.518 115.744C128.478 116.8 128.958 118.272 128.958 120.16C128.958 122.048 128.478 123.52 127.518 124.576ZM135.968 126.16C134.251 126.16 132.859 125.627 131.792 124.56C130.736 123.483 130.208 122.016 130.208 120.16C130.208 118.283 130.736 116.816 131.792 115.76C132.848 114.693 134.309 114.16 136.176 114.16C136.944 114.16 137.643 114.213 138.272 114.32C138.528 114.363 138.741 114.491 138.912 114.704C139.083 114.907 139.168 115.141 139.168 115.408V115.472C139.168 115.696 139.077 115.877 138.896 116.016C138.715 116.155 138.512 116.197 138.288 116.144C137.659 116.005 137.035 115.936 136.416 115.936C135.125 115.936 134.144 116.293 133.472 117.008C132.811 117.712 132.48 118.763 132.48 120.16C132.48 121.515 132.805 122.56 133.456 123.296C134.117 124.021 135.008 124.384 136.128 124.384C136.587 124.384 137.04 124.32 137.488 124.192C137.573 124.171 137.616 124.112 137.616 124.016V120.848C137.616 120.752 137.573 120.704 137.488 120.704H135.488C135.253 120.704 135.051 120.624 134.88 120.464C134.72 120.293 134.64 120.091 134.64 119.856C134.64 119.611 134.72 119.408 134.88 119.248C135.051 119.077 135.253 118.992 135.488 118.992H138.848C139.093 118.992 139.307 119.083 139.488 119.264C139.669 119.445 139.76 119.659 139.76 119.904V124.56C139.76 124.837 139.68 125.088 139.52 125.312C139.36 125.536 139.152 125.685 138.896 125.76C137.989 126.027 137.013 126.16 135.968 126.16ZM143.441 126C143.196 126 142.983 125.909 142.801 125.728C142.62 125.547 142.529 125.333 142.529 125.088V115.232C142.529 114.987 142.62 114.773 142.801 114.592C142.983 114.411 143.196 114.32 143.441 114.32H144.081C144.327 114.32 144.54 114.411 144.721 114.592C144.903 114.773 144.993 114.987 144.993 115.232V125.088C144.993 125.333 144.903 125.547 144.721 125.728C144.54 125.909 144.327 126 144.081 126H143.441ZM151.85 116.304L150.442 121.328C150.432 121.36 150.437 121.392 150.458 121.424C150.48 121.456 150.506 121.472 150.538 121.472H153.194C153.226 121.472 153.253 121.456 153.274 121.424C153.296 121.392 153.301 121.36 153.29 121.328L151.882 116.304C151.882 116.293 151.877 116.288 151.866 116.288C151.856 116.288 151.85 116.293 151.85 116.304ZM147.706 126C147.482 126 147.306 125.909 147.178 125.728C147.05 125.547 147.024 125.349 147.098 125.136L150.41 115.184C150.506 114.928 150.661 114.72 150.874 114.56C151.098 114.4 151.344 114.32 151.61 114.32H152.186C152.464 114.32 152.709 114.4 152.922 114.56C153.146 114.72 153.301 114.928 153.386 115.184L156.698 125.136C156.773 125.349 156.746 125.547 156.618 125.728C156.49 125.909 156.314 126 156.09 126H155.514C155.258 126 155.018 125.92 154.794 125.76C154.581 125.589 154.437 125.376 154.362 125.12L153.85 123.312C153.84 123.227 153.781 123.184 153.674 123.184H150.058C149.962 123.184 149.904 123.227 149.882 123.312L149.37 125.12C149.306 125.376 149.162 125.589 148.938 125.76C148.725 125.92 148.485 126 148.218 126H147.706ZM53.5432 150C53.2979 150 53.0845 149.909 52.9032 149.728C52.7219 149.547 52.6312 149.333 52.6312 149.088V139.232C52.6312 138.987 52.7219 138.773 52.9032 138.592C53.0845 138.411 53.2979 138.32 53.5432 138.32H58.9832C59.2285 138.32 59.4419 138.411 59.6232 138.592C59.8045 138.773 59.8952 138.987 59.8952 139.232C59.8952 139.477 59.8045 139.691 59.6232 139.872C59.4419 140.043 59.2285 140.128 58.9832 140.128H55.0152C54.9192 140.128 54.8712 140.176 54.8712 140.272V142.848C54.8712 142.944 54.9192 142.992 55.0152 142.992H58.7112C58.9565 142.992 59.1592 143.077 59.3192 143.248C59.4899 143.419 59.5752 143.621 59.5752 143.856C59.5752 144.091 59.4899 144.293 59.3192 144.464C59.1592 144.624 58.9565 144.704 58.7112 144.704H55.0152C54.9192 144.704 54.8712 144.752 54.8712 144.848V148.048C54.8712 148.144 54.9192 148.192 55.0152 148.192H58.9832C59.2285 148.192 59.4419 148.283 59.6232 148.464C59.8045 148.635 59.8952 148.843 59.8952 149.088C59.8952 149.333 59.8045 149.547 59.6232 149.728C59.4419 149.909 59.2285 150 58.9832 150H53.5432ZM64.4802 140.176V148.144C64.4802 148.219 64.5229 148.267 64.6082 148.288C64.9495 148.341 65.2695 148.368 65.5682 148.368C66.8162 148.368 67.7335 148.032 68.3202 147.36C68.9069 146.677 69.2002 145.557 69.2002 144C69.2002 142.603 68.9015 141.579 68.3042 140.928C67.7069 140.277 66.7949 139.952 65.5682 139.952C65.2695 139.952 64.9495 139.979 64.6082 140.032C64.5229 140.053 64.4802 140.101 64.4802 140.176ZM63.1682 150.048C62.9015 150.016 62.6829 149.904 62.5122 149.712C62.3415 149.509 62.2562 149.275 62.2562 149.008V139.312C62.2562 139.045 62.3415 138.816 62.5122 138.624C62.6829 138.421 62.9015 138.304 63.1682 138.272C63.8509 138.197 64.6135 138.16 65.4562 138.16C67.3549 138.16 68.8055 138.656 69.8082 139.648C70.8215 140.64 71.3282 142.091 71.3282 144C71.3282 146.048 70.8215 147.589 69.8082 148.624C68.8055 149.648 67.3549 150.16 65.4562 150.16C64.6135 150.16 63.8509 150.123 63.1682 150.048ZM81.6112 145.84C81.6112 148.72 80.1712 150.16 77.2912 150.16C74.4112 150.16 72.9712 148.72 72.9712 145.84V139.232C72.9712 138.987 73.0619 138.773 73.2432 138.592C73.4245 138.411 73.6379 138.32 73.8832 138.32H74.3312C74.5765 138.32 74.7899 138.411 74.9712 138.592C75.1525 138.773 75.2432 138.987 75.2432 139.232V145.968C75.2432 146.8 75.4085 147.403 75.7392 147.776C76.0805 148.139 76.6085 148.32 77.3232 148.32C78.0379 148.32 78.5605 148.139 78.8912 147.776C79.2325 147.403 79.4032 146.8 79.4032 145.968V139.232C79.4032 138.987 79.4939 138.773 79.6752 138.592C79.8565 138.411 80.0699 138.32 80.3152 138.32H80.6992C80.9445 138.32 81.1579 138.411 81.3392 138.592C81.5205 138.773 81.6112 138.987 81.6112 139.232V145.84ZM88.7429 150.16C87.0576 150.16 85.7189 149.643 84.7269 148.608C83.7456 147.563 83.2549 146.08 83.2549 144.16C83.2549 142.261 83.7296 140.789 84.6789 139.744C85.6389 138.688 86.9776 138.16 88.6949 138.16C89.4843 138.16 90.1456 138.208 90.6789 138.304C90.9349 138.347 91.1483 138.475 91.3189 138.688C91.4896 138.901 91.5749 139.141 91.5749 139.408V139.536C91.5749 139.76 91.4789 139.936 91.2869 140.064C91.1056 140.192 90.9083 140.229 90.6949 140.176C90.1723 140.037 89.5856 139.968 88.9349 139.968C87.8789 139.968 87.0469 140.331 86.4389 141.056C85.8416 141.781 85.5429 142.816 85.5429 144.16C85.5429 145.493 85.8523 146.528 86.4709 147.264C87.1003 147.989 87.9376 148.352 88.9829 148.352C89.6869 148.352 90.2896 148.288 90.7909 148.16C91.0043 148.107 91.2016 148.144 91.3829 148.272C91.5749 148.4 91.6709 148.576 91.6709 148.8V148.912C91.6709 149.179 91.5856 149.419 91.4149 149.632C91.2549 149.835 91.0416 149.957 90.7749 150C90.1669 150.107 89.4896 150.16 88.7429 150.16ZM98.1316 140.304L96.7236 145.328C96.7129 145.36 96.7182 145.392 96.7396 145.424C96.7609 145.456 96.7876 145.472 96.8196 145.472H99.4756C99.5076 145.472 99.5342 145.456 99.5556 145.424C99.5769 145.392 99.5822 145.36 99.5716 145.328L98.1636 140.304C98.1636 140.293 98.1582 140.288 98.1476 140.288C98.1369 140.288 98.1316 140.293 98.1316 140.304ZM93.9876 150C93.7636 150 93.5876 149.909 93.4596 149.728C93.3316 149.547 93.3049 149.349 93.3796 149.136L96.6916 139.184C96.7876 138.928 96.9422 138.72 97.1556 138.56C97.3796 138.4 97.6249 138.32 97.8916 138.32H98.4676C98.7449 138.32 98.9902 138.4 99.2036 138.56C99.4276 138.72 99.5822 138.928 99.6676 139.184L102.98 149.136C103.054 149.349 103.028 149.547 102.9 149.728C102.772 149.909 102.596 150 102.372 150H101.796C101.54 150 101.3 149.92 101.076 149.76C100.862 149.589 100.718 149.376 100.644 149.12L100.132 147.312C100.121 147.227 100.062 147.184 99.9556 147.184H96.3396C96.2436 147.184 96.1849 147.227 96.1636 147.312L95.6516 149.12C95.5876 149.376 95.4436 149.589 95.2196 149.76C95.0062 149.92 94.7662 150 94.4996 150H93.9876ZM108.852 150.16C107.167 150.16 105.828 149.643 104.836 148.608C103.855 147.563 103.364 146.08 103.364 144.16C103.364 142.261 103.839 140.789 104.788 139.744C105.748 138.688 107.087 138.16 108.804 138.16C109.594 138.16 110.255 138.208 110.788 138.304C111.044 138.347 111.258 138.475 111.428 138.688C111.599 138.901 111.684 139.141 111.684 139.408V139.536C111.684 139.76 111.588 139.936 111.396 140.064C111.215 140.192 111.018 140.229 110.804 140.176C110.282 140.037 109.695 139.968 109.044 139.968C107.988 139.968 107.156 140.331 106.548 141.056C105.951 141.781 105.652 142.816 105.652 144.16C105.652 145.493 105.962 146.528 106.58 147.264C107.21 147.989 108.047 148.352 109.092 148.352C109.796 148.352 110.399 148.288 110.9 148.16C111.114 148.107 111.311 148.144 111.492 148.272C111.684 148.4 111.78 148.576 111.78 148.8V148.912C111.78 149.179 111.695 149.419 111.524 149.632C111.364 149.835 111.151 149.957 110.884 150C110.276 150.107 109.599 150.16 108.852 150.16ZM115.457 150C115.212 150 114.998 149.909 114.817 149.728C114.636 149.547 114.545 149.333 114.545 149.088V139.232C114.545 138.987 114.636 138.773 114.817 138.592C114.998 138.411 115.212 138.32 115.457 138.32H116.097C116.342 138.32 116.556 138.411 116.737 138.592C116.918 138.773 117.009 138.987 117.009 139.232V149.088C117.009 149.333 116.918 149.547 116.737 149.728C116.556 149.909 116.342 150 116.097 150H115.457ZM127.498 144.16C127.498 141.387 126.485 140 124.458 140C122.431 140 121.418 141.387 121.418 144.16C121.418 146.933 122.431 148.32 124.458 148.32C126.485 148.32 127.498 146.933 127.498 144.16ZM128.346 148.576C127.397 149.632 126.101 150.16 124.458 150.16C122.815 150.16 121.514 149.632 120.554 148.576C119.605 147.52 119.13 146.048 119.13 144.16C119.13 142.272 119.605 140.8 120.554 139.744C121.514 138.688 122.815 138.16 124.458 138.16C126.101 138.16 127.397 138.688 128.346 139.744C129.306 140.8 129.786 142.272 129.786 144.16C129.786 146.048 129.306 147.52 128.346 148.576ZM132.496 150C132.251 150 132.037 149.909 131.856 149.728C131.685 149.547 131.6 149.333 131.6 149.088V139.232C131.6 138.987 131.685 138.773 131.856 138.592C132.037 138.411 132.251 138.32 132.496 138.32H132.848C133.456 138.32 133.904 138.587 134.192 139.12L138.144 146.256C138.144 146.267 138.149 146.272 138.16 146.272C138.171 146.272 138.176 146.267 138.176 146.256V139.232C138.176 138.987 138.267 138.773 138.448 138.592C138.629 138.411 138.843 138.32 139.088 138.32H139.44C139.685 138.32 139.893 138.411 140.064 138.592C140.245 138.773 140.336 138.987 140.336 139.232V149.088C140.336 149.333 140.245 149.547 140.064 149.728C139.893 149.909 139.685 150 139.44 150H139.088C138.48 150 138.032 149.733 137.744 149.2L133.792 142.064C133.792 142.053 133.787 142.048 133.776 142.048C133.765 142.048 133.76 142.053 133.76 142.064V149.088C133.76 149.333 133.669 149.547 133.488 149.728C133.307 149.909 133.093 150 132.848 150H132.496ZM146.882 140.304L145.474 145.328C145.463 145.36 145.468 145.392 145.49 145.424C145.511 145.456 145.538 145.472 145.57 145.472H148.226C148.258 145.472 148.284 145.456 148.306 145.424C148.327 145.392 148.332 145.36 148.322 145.328L146.914 140.304C146.914 140.293 146.908 140.288 146.898 140.288C146.887 140.288 146.882 140.293 146.882 140.304ZM142.738 150C142.514 150 142.338 149.909 142.21 149.728C142.082 149.547 142.055 149.349 142.13 149.136L145.442 139.184C145.538 138.928 145.692 138.72 145.906 138.56C146.13 138.4 146.375 138.32 146.642 138.32H147.218C147.495 138.32 147.74 138.4 147.954 138.56C148.178 138.72 148.332 138.928 148.418 139.184L151.73 149.136C151.804 149.349 151.778 149.547 151.65 149.728C151.522 149.909 151.346 150 151.122 150H150.546C150.29 150 150.05 149.92 149.826 149.76C149.612 149.589 149.468 149.376 149.394 149.12L148.882 147.312C148.871 147.227 148.812 147.184 148.706 147.184H145.09C144.994 147.184 144.935 147.227 144.914 147.312L144.402 149.12C144.338 149.376 144.194 149.589 143.97 149.76C143.756 149.92 143.516 150 143.25 150H142.738ZM154.215 150C153.969 150 153.756 149.909 153.575 149.728C153.404 149.547 153.319 149.333 153.319 149.088V139.232C153.319 138.987 153.404 138.773 153.575 138.592C153.756 138.411 153.969 138.32 154.215 138.32H154.727C154.972 138.32 155.185 138.411 155.367 138.592C155.548 138.773 155.639 138.987 155.639 139.232V148C155.639 148.096 155.681 148.144 155.767 148.144H159.879C160.124 148.144 160.332 148.235 160.503 148.416C160.684 148.587 160.775 148.795 160.775 149.04V149.088C160.775 149.333 160.684 149.547 160.503 149.728C160.332 149.909 160.124 150 159.879 150H154.215Z" fill="white"/>
<g filter="url(#filter0_d_221_55)">
<path d="M133.5 23H78.5C74.3579 23 71 26.3579 71 30.5V65.5C71 69.6421 74.3579 73 78.5 73H133.5C137.642 73 141 69.6421 141 65.5V30.5C141 26.3579 137.642 23 133.5 23Z" fill="#1565C0"/>
<path d="M101.225 45.875C102.296 44.835 103.032 43.4992 103.339 42.0385C103.647 40.5777 103.511 39.0585 102.95 37.6752C102.389 36.292 101.428 35.1077 100.19 34.2738C98.9515 33.4399 97.4927 32.9945 96 32.9945C94.5073 32.9945 93.0485 33.4399 91.8104 34.2738C90.5723 35.1077 89.6112 36.292 89.0501 37.6752C88.4889 39.0585 88.3533 40.5777 88.6606 42.0385C88.9679 43.4992 89.7041 44.835 90.775 45.875C85.2 47.375 81 53.35 81 60.5C81 61.163 81.2634 61.7989 81.7322 62.2677C82.2011 62.7366 82.837 63 83.5 63C84.163 63 84.7989 62.7366 85.2678 62.2677C85.7366 61.7989 86 61.163 86 60.5C86 54.975 89.375 50.5 93.5 50.5H98.5C102.625 50.5 106 54.975 106 60.5C106 61.163 106.263 61.7989 106.732 62.2677C107.201 62.7366 107.837 63 108.5 63C109.163 63 109.799 62.7366 110.268 62.2677C110.737 61.7989 111 61.163 111 60.5C111 53.35 106.8 47.375 101.225 45.875ZM96 38C96.4945 38 96.9778 38.1466 97.3889 38.4213C97.8 38.696 98.1205 39.0864 98.3097 39.5433C98.4989 40.0001 98.5484 40.5027 98.452 40.9877C98.3555 41.4726 98.1174 41.9181 97.7678 42.2677C97.4181 42.6174 96.9727 42.8555 96.4877 42.9519C96.0028 43.0484 95.5001 42.9989 95.0433 42.8097C94.5865 42.6204 94.196 42.3 93.9213 41.8889C93.6466 41.4778 93.5 40.9944 93.5 40.5C93.5 39.8369 93.7634 39.201 94.2322 38.7322C94.7011 38.2634 95.337 38 96 38Z" fill="#E64A19"/>
<path d="M128.5 38H121C120.337 38 119.701 37.7366 119.232 37.2678C118.763 36.7989 118.5 36.163 118.5 35.5C118.5 34.837 118.763 34.2011 119.232 33.7322C119.701 33.2634 120.337 33 121 33H128.5C129.163 33 129.799 33.2634 130.268 33.7322C130.737 34.2011 131 34.837 131 35.5C131 36.163 130.737 36.7989 130.268 37.2678C129.799 37.7366 129.163 38 128.5 38Z" fill="#E0E0E0"/>
<path d="M128.5 48H113.5C112.837 48 112.201 47.7366 111.732 47.2678C111.263 46.7989 111 46.163 111 45.5C111 44.837 111.263 44.2011 111.732 43.7322C112.201 43.2634 112.837 43 113.5 43H128.5C129.163 43 129.799 43.2634 130.268 43.7322C130.737 44.2011 131 44.837 131 45.5C131 46.163 130.737 46.7989 130.268 47.2678C129.799 47.7366 129.163 48 128.5 48Z" fill="#E0E0E0"/>
<path d="M128.5 58H121C120.337 58 119.701 57.7366 119.232 57.2678C118.763 56.7989 118.5 56.163 118.5 55.5C118.5 54.837 118.763 54.2011 119.232 53.7322C119.701 53.2634 120.337 53 121 53H128.5C129.163 53 129.799 53.2634 130.268 53.7322C130.737 54.2011 131 54.837 131 55.5C131 56.163 130.737 56.7989 130.268 57.2678C129.799 57.7366 129.163 58 128.5 58Z" fill="#E0E0E0"/>
<path d="M133.5 78H78.5C76.5109 78 74.6032 78.7902 73.1967 80.1967C71.7902 81.6032 71 83.5109 71 85.5C71 87.4891 71.7902 89.3968 73.1967 90.8033C74.6032 92.2098 76.5109 93 78.5 93H133.5C135.489 93 137.397 92.2098 138.803 90.8033C140.21 89.3968 141 87.4891 141 85.5C141 83.5109 140.21 81.6032 138.803 80.1967C137.397 78.7902 135.489 78 133.5 78Z" fill="#37474F"/>
<path d="M78.5 23C76.5109 23 74.6032 23.7902 73.1967 25.1967C71.7902 26.6032 71 28.5109 71 30.5V65.5C71 67.4891 71.7902 69.3968 73.1967 70.8033C74.6032 72.2098 76.5109 73 78.5 73H106V23H78.5Z" fill="#1E88E5"/>
<path d="M101.225 45.875C102.296 44.835 103.032 43.4992 103.339 42.0385C103.647 40.5777 103.511 39.0585 102.95 37.6752C102.389 36.292 101.428 35.1077 100.19 34.2738C98.9515 33.4399 97.4927 32.9945 96 32.9945C94.5073 32.9945 93.0485 33.4399 91.8104 34.2738C90.5723 35.1077 89.6112 36.292 89.0501 37.6752C88.4889 39.0585 88.3533 40.5777 88.6606 42.0385C88.9679 43.4992 89.7041 44.835 90.775 45.875C85.2 47.375 81 53.35 81 60.5C81 61.163 81.2634 61.7989 81.7322 62.2677C82.2011 62.7366 82.837 63 83.5 63C84.163 63 84.7989 62.7366 85.2678 62.2677C85.7366 61.7989 86 61.163 86 60.5C86 54.975 89.375 50.5 93.5 50.5H98.5C102.625 50.5 106 54.975 106 60.5V48.575C104.648 47.3046 103.01 46.3785 101.225 45.875ZM96 43C95.5055 43 95.0222 42.8533 94.6111 42.5786C94.2 42.3039 93.8795 41.9135 93.6903 41.4567C93.5011 40.9999 93.4516 40.4972 93.548 40.0122C93.6445 39.5273 93.8826 39.0818 94.2322 38.7322C94.5819 38.3826 95.0273 38.1445 95.5123 38.048C95.9972 37.9515 96.4999 38.0011 96.9567 38.1903C97.4135 38.3795 97.804 38.6999 98.0787 39.111C98.3534 39.5222 98.5 40.0055 98.5 40.5C98.5 41.163 98.2366 41.7989 97.7678 42.2677C97.2989 42.7366 96.663 43 96 43Z" fill="#FF7043"/>
<path d="M78.5 78C76.5109 78 74.6032 78.7902 73.1967 80.1967C71.7902 81.6032 71 83.5109 71 85.5C71 87.4891 71.7902 89.3968 73.1967 90.8033C74.6032 92.2098 76.5109 93 78.5 93H106V78H78.5Z" fill="#455A64"/>
</g>
<defs>
<filter id="filter0_d_221_55" x="67" y="23" width="78" height="78" filterUnits="userSpaceOnUse" color-interpolation-filters="sRGB">
<feFlood flood-opacity="0" result="BackgroundImageFix"/>
<feColorMatrix in="SourceAlpha" type="matrix" values="0 0 0 0 0 0 0 0 0 0 0 0 0 0 0 0 0 0 127 0" result="hardAlpha"/>
<feOffset dy="4"/>
<feGaussianBlur stdDeviation="2"/>
<feComposite in2="hardAlpha" operator="out"/>
<feColorMatrix type="matrix" values="0 0 0 0 0 0 0 0 0 0 0 0 0 0 0 0 0 0 0.25 0"/>
<feBlend mode="normal" in2="BackgroundImageFix" result="effect1_dropShadow_221_55"/>
<feBlend mode="normal" in="SourceGraphic" in2="effect1_dropShadow_221_55" result="shape"/>
</filter>
</defs>
</svg>
